RobotoFlex-opsz144-wght900-wdth25-XTRA603.ufo
<glyph name="ampersand" format="2">
  <advance width="1173"/>
  <unicode hex="0026"/>
  <outline>
    <contour>
      <point x="24.0" y="373.0" type="qcurve" smooth="yes"/>
      <point x="24.0" y="527.7333333333333"/>
      <point x="173.55555555555554" y="731.3111111111111"/>
      <point x="314.15555555555557" y="833.7111111111111" type="qcurve" smooth="yes"/>
      <point x="436.15555555555557" y="919.3555555555556" type="line" smooth="yes"/>
      <point x="513.7333333333333" y="974.4444444444445"/>
      <point x="573.9555555555555" y="1110.6444444444444"/>
      <point x="573.9555555555555" y="1175.0" type="qcurve" smooth="yes"/>
      <point x="573.9555555555555" y="1234.5333333333333"/>
      <point x="556.9555555555555" y="1293.0"/>
      <point x="527.0222222222222" y="1293.0" type="qcurve" smooth="yes"/>
      <point x="497.55555555555554" y="1293.0"/>
      <point x="475.66666666666674" y="1230.5333333333333"/>
      <point x="475.66666666666674" y="1170.0" type="qcurve" smooth="yes"/>
      <point x="475.66666666666674" y="1096.8222222222223"/>
      <point x="566.1333333333332" y="923.1111111111111"/>
      <point x="632.7111111111111" y="826.1111111111111" type="qcurve" smooth="yes"/>
      <point x="1168.1333333333334" y="0.0" type="line"/>
      <point x="762.2666666666667" y="0.0" type="line"/>
      <point x="291.1777777777778" y="730.1777777777778" type="line" smooth="yes"/>
      <point x="212.6" y="843.8222222222222"/>
      <point x="130.84444444444443" y="1056.0"/>
      <point x="130.84444444444443" y="1156.0" type="qcurve" smooth="yes"/>
      <point x="130.84444444444443" y="1316.6222222222223"/>
      <point x="330.9111111111111" y="1486.0"/>
      <point x="533.0222222222222" y="1486.0" type="qcurve" smooth="yes"/>
      <point x="730.7777777777778" y="1486.0"/>
      <point x="915.7555555555555" y="1329.0666666666666"/>
      <point x="915.7555555555555" y="1166.088888888889" type="qcurve" smooth="yes"/>
      <point x="915.7555555555555" y="1037.0"/>
      <point x="771.8222222222222" y="854.3555555555556"/>
      <point x="665.1111111111111" y="766.1555555555556" type="qcurve" smooth="yes"/>
      <point x="562.7777777777778" y="684.4444444444445" type="line" smooth="yes"/>
      <point x="430.9555555555555" y="578.3111111111111"/>
      <point x="375.0" y="476.4888888888889"/>
      <point x="375.0" y="388.0" type="qcurve" smooth="yes"/>
      <point x="375.0" y="311.0"/>
      <point x="431.68888888888887" y="233.0"/>
      <point x="499.4" y="233.0" type="qcurve" smooth="yes"/>
      <point x="659.0" y="233.0"/>
      <point x="790.0" y="450.0"/>
      <point x="813.0" y="727.0" type="qcurve"/>
      <point x="1155.0" y="727.0" type="line"/>
      <point x="1155.0" y="402.0"/>
      <point x="743.1777777777778" y="-20.0"/>
      <point x="483.4" y="-20.0" type="qcurve" smooth="yes"/>
      <point x="247.51111111111112" y="-20.0"/>
      <point x="24.0" y="170.0"/>
    </contour>
  </outline>
</glyph>
<glyph name="parenleft" format="2">
  <advance width="622"/>
  <unicode hex="0028"/>
  <outline>
    <contour>
      <point x="618.0" y="-436.0" type="line"/>
      <point x="369.22222222222223" y="-376.1333333333333"/>
      <point x="53.0" y="95.22222222222223"/>
      <point x="53.0" y="514.0" type="qcurve" smooth="yes"/>
      <point x="53.0" y="525.0" type="line" smooth="yes"/>
      <point x="53.0" y="943.2666666666667"/>
      <point x="369.22222222222223" y="1416.1333333333334"/>
      <point x="618.0" y="1476.0" type="qcurve"/>
      <point x="618.0" y="1242.7777777777778" type="line"/>
      <point x="520.8666666666667" y="1193.2"/>
      <point x="453.0" y="891.6888888888889"/>
      <point x="453.0" y="532.0" type="qcurve" smooth="yes"/>
      <point x="453.0" y="508.0" type="line" smooth="yes"/>
      <point x="453.0" y="147.06666666666666"/>
      <point x="520.8666666666667" y="-153.2"/>
      <point x="618.0" y="-202.77777777777777" type="qcurve"/>
    </contour>
  </outline>
</glyph>
<glyph name="slash" format="2">
  <advance width="849"/>
  <unicode hex="002F"/>
  <outline>
    <contour>
      <point x="-74.0" y="-47.0" type="line"/>
      <point x="355.8" y="1456.0" type="line"/>
      <point x="853.3333333333334" y="1456.0" type="line"/>
      <point x="422.44444444444446" y="-47.0" type="line"/>
    </contour>
  </outline>
</glyph>
<glyph name="zero" format="2">
  <advance width="1029"/>
  <unicode hex="0030"/>
  <outline>
    <contour>
      <point x="10.0" y="517.7777777777778" type="qcurve" smooth="yes"/>
      <point x="10.0" y="935.2222222222222" type="line" smooth="yes"/>
      <point x="10.0" y="1224.0222222222221"/>
      <point x="282.5111111111111" y="1476.0"/>
      <point x="514.4" y="1476.0" type="qcurve" smooth="yes"/>
      <point x="745.2888888888889" y="1476.0"/>
      <point x="1018.8" y="1234.0222222222221"/>
      <point x="1018.8" y="935.2222222222222" type="qcurve" smooth="yes"/>
      <point x="1018.8" y="517.7777777777778" type="line" smooth="yes"/>
      <point x="1018.8" y="232.62222222222226"/>
      <point x="718.2888888888889" y="-20.0"/>
      <point x="514.4" y="-20.0" type="qcurve" smooth="yes"/>
      <point x="278.5111111111111" y="-20.0"/>
      <point x="10.0" y="235.62222222222226"/>
    </contour>
    <contour>
      <point x="489.91111111111104" y="395.77777777777777" type="line" smooth="yes"/>
      <point x="489.91111111111104" y="375.6222222222222"/>
      <point x="499.0666666666666" y="359.0"/>
      <point x="510.4" y="359.0" type="qcurve" smooth="yes"/>
      <point x="521.7333333333333" y="359.0"/>
      <point x="531.8888888888889" y="375.6222222222222"/>
      <point x="531.8888888888889" y="395.77777777777777" type="qcurve" smooth="yes"/>
      <point x="531.8888888888889" y="1045.2222222222222" type="line" smooth="yes"/>
      <point x="531.8888888888889" y="1062.9333333333334"/>
      <point x="521.7333333333333" y="1078.0"/>
      <point x="510.4" y="1078.0" type="qcurve" smooth="yes"/>
      <point x="500.0666666666666" y="1078.0"/>
      <point x="489.91111111111104" y="1062.9333333333334"/>
      <point x="489.91111111111104" y="1045.2222222222222" type="qcurve" smooth="yes"/>
    </contour>
  </outline>
</glyph>
<glyph name="two" format="2">
  <advance width="1029"/>
  <unicode hex="0032"/>
  <outline>
    <contour>
      <point x="9.0" y="0.0" type="line"/>
      <point x="9.0" y="384.0" type="line"/>
      <point x="491.73333333333335" y="880.5111111111111" type="line" smooth="yes"/>
      <point x="512.6444444444444" y="901.3777777777777"/>
      <point x="534.4444444444445" y="953.7111111111112"/>
      <point x="534.4444444444445" y="999.088888888889" type="qcurve" smooth="yes"/>
      <point x="534.4444444444445" y="1043.088888888889"/>
      <point x="519.1111111111111" y="1068.0"/>
      <point x="499.5777777777778" y="1068.0" type="qcurve" smooth="yes"/>
      <point x="478.62222222222226" y="1068.0"/>
      <point x="466.91111111111104" y="1043.6666666666667"/>
      <point x="466.91111111111104" y="1026.0" type="qcurve" smooth="yes"/>
      <point x="466.91111111111104" y="891.0" type="line"/>
      <point x="1.0" y="891.0" type="line"/>
      <point x="1.0" y="997.0" type="line" smooth="yes"/>
      <point x="3.0" y="1226.7555555555555"/>
      <point x="274.26666666666665" y="1476.0"/>
      <point x="518.5777777777778" y="1476.0" type="qcurve" smooth="yes"/>
      <point x="773.0222222222222" y="1476.0"/>
      <point x="1004.4444444444443" y="1242.0"/>
      <point x="1004.4444444444443" y="1047.088888888889" type="qcurve" smooth="yes"/>
      <point x="1004.4444444444443" y="889.0"/>
      <point x="909.5999999999999" y="677.3555555555556"/>
      <point x="828.3111111111111" y="596.0" type="qcurve" smooth="yes"/>
      <point x="690.7555555555555" y="464.1111111111111" type="line"/>
      <point x="1022.3333333333335" y="464.1111111111111" type="line"/>
      <point x="1022.3333333333335" y="0.0" type="line"/>
    </contour>
  </outline>
</glyph>
<glyph name="four" format="2">
  <advance width="1029"/>
  <unicode hex="0034"/>
  <outline>
    <contour>
      <point x="457.02222222222224" y="0.0" type="line"/>
      <point x="457.02222222222224" y="341.0" type="line"/>
      <point x="479.02222222222224" y="355.0" type="line"/>
      <point x="479.02222222222224" y="753.4444444444445" type="line"/>
      <point x="470.02222222222224" y="753.4444444444445" type="line"/>
      <point x="375.1333333333333" y="615.0" type="line"/>
      <point x="708.1777777777778" y="615.0" type="line"/>
      <point x="737.8666666666667" y="665.0" type="line"/>
      <point x="1026.5555555555557" y="665.0" type="line"/>
      <point x="1026.5555555555557" y="219.0" type="line"/>
      <point x="0.0" y="219.0" type="line"/>
      <point x="0.0" y="712.0" type="line"/>
      <point x="533.0222222222222" y="1456.0" type="line"/>
      <point x="991.0222222222224" y="1456.0" type="line"/>
      <point x="991.0222222222224" y="0.0" type="line"/>
    </contour>
  </outline>
</glyph>
<glyph name="five" format="2">
  <advance width="1029"/>
  <unicode hex="0035"/>
  <outline>
    <contour>
      <point x="9.0" y="459.0" type="qcurve" smooth="yes"/>
      <point x="9.0" y="581.0" type="line"/>
      <point x="476.91111111111104" y="581.0" type="line"/>
      <point x="476.91111111111104" y="424.0" type="line" smooth="yes"/>
      <point x="477.91111111111104" y="388.0"/>
      <point x="488.68888888888887" y="359.0"/>
      <point x="505.4" y="359.0" type="qcurve" smooth="yes"/>
      <point x="522.2" y="359.0"/>
      <point x="529.2444444444445" y="402.0"/>
      <point x="529.2444444444445" y="499.0" type="qcurve" smooth="yes"/>
      <point x="529.2444444444445" y="655.0"/>
      <point x="514.2" y="680.0"/>
      <point x="495.4" y="680.0" type="qcurve" smooth="yes"/>
      <point x="480.1777777777778" y="680.0"/>
      <point x="470.33333333333326" y="642.9111111111112"/>
      <point x="468.20000000000005" y="596.9333333333333" type="qcurve"/>
      <point x="24.066666666666666" y="650.0" type="line"/>
      <point x="93.06666666666666" y="1456.0" type="line"/>
      <point x="936.5555555555557" y="1456.0" type="line"/>
      <point x="942.5555555555557" y="999.0" type="line"/>
      <point x="499.97777777777776" y="999.0" type="line"/>
      <point x="491.8888888888889" y="931.0666666666667" type="line"/>
      <point x="542.0444444444445" y="962.7777777777778"/>
      <point x="623.6444444444444" y="983.0"/>
      <point x="679.1111111111111" y="983.0" type="qcurve" smooth="yes"/>
      <point x="823.2888888888889" y="983.0"/>
      <point x="1025.2444444444445" y="793.0"/>
      <point x="1025.2444444444445" y="532.0" type="qcurve" smooth="yes"/>
      <point x="1025.2444444444445" y="271.0"/>
      <point x="763.1111111111111" y="-20.0"/>
      <point x="511.4" y="-20.0" type="qcurve" smooth="yes"/>
      <point x="259.77777777777777" y="-20.0"/>
      <point x="9.0" y="227.0"/>
    </contour>
  </outline>
</glyph>
<glyph name="seven" format="2">
  <advance width="1029"/>
  <unicode hex="0037"/>
  <outline>
    <contour>
      <point x="107.15555555555557" y="0.0" type="line"/>
      <point x="477.4222222222222" y="998.4444444444443" type="line"/>
      <point x="23.0" y="998.4444444444443" type="line"/>
      <point x="23.0" y="1456.0" type="line"/>
      <point x="1015.6888888888889" y="1456.0" type="line"/>
      <point x="1015.6888888888889" y="982.0" type="line"/>
      <point x="695.1555555555556" y="0.0" type="line"/>
    </contour>
  </outline>
</glyph>
<glyph name="nine" format="2">
  <advance width="1029"/>
  <unicode hex="0039"/>
  <outline>
    <contour>
      <point x="3.0" y="946.0" type="qcurve" smooth="yes"/>
      <point x="3.0" y="1190.0"/>
      <point x="285.0444444444445" y="1476.0"/>
      <point x="515.7555555555555" y="1476.0" type="qcurve" smooth="yes"/>
      <point x="751.3777777777777" y="1476.0"/>
      <point x="1020.1333333333332" y="1214.0"/>
      <point x="1020.1333333333332" y="907.0" type="qcurve" smooth="yes"/>
      <point x="1020.1333333333332" y="812.0" type="line" smooth="yes"/>
      <point x="1020.1333333333332" y="419.0"/>
      <point x="658.9777777777778" y="-20.0"/>
      <point x="232.5333333333333" y="-20.0" type="qcurve" smooth="yes"/>
      <point x="127.0888888888889" y="-20.0" type="line"/>
      <point x="127.0888888888889" y="400.0" type="line"/>
      <point x="157.5333333333333" y="400.0" type="line" smooth="yes"/>
      <point x="350.7111111111111" y="400.0"/>
      <point x="546.1333333333333" y="536.0"/>
      <point x="546.1333333333333" y="908.0" type="qcurve" smooth="yes"/>
      <point x="546.1333333333333" y="1060.0" type="line" smooth="yes"/>
      <point x="546.1333333333333" y="1079.0"/>
      <point x="532.6444444444444" y="1088.0"/>
      <point x="521.7555555555555" y="1088.0" type="qcurve" smooth="yes"/>
      <point x="510.6" y="1088.0"/>
      <point x="497.91111111111104" y="1073.0"/>
      <point x="497.91111111111104" y="918.0" type="qcurve" smooth="yes"/>
      <point x="497.91111111111104" y="805.0"/>
      <point x="508.6" y="786.0"/>
      <point x="520.7555555555555" y="786.0" type="qcurve" smooth="yes"/>
      <point x="534.2" y="786.0"/>
      <point x="546.1333333333333" y="811.0"/>
      <point x="546.1333333333333" y="861.0" type="qcurve"/>
      <point x="597.3111111111111" y="861.0" type="line"/>
      <point x="597.3111111111111" y="669.0"/>
      <point x="482.55555555555554" y="503.0"/>
      <point x="330.8666666666667" y="503.0" type="qcurve" smooth="yes"/>
      <point x="180.42222222222222" y="503.0"/>
      <point x="3.0" y="702.0"/>
    </contour>
  </outline>
</glyph>
<glyph name="less" format="2">
  <advance width="667"/>
  <unicode hex="003C"/>
  <outline>
    <contour>
      <point x="636.5333333333333" y="129.17777777777778" type="line"/>
      <point x="25.400000000000006" y="516.1777777777778" type="line"/>
      <point x="25.400000000000006" y="832.1777777777778" type="line"/>
      <point x="636.5333333333333" y="1225.1777777777777" type="line"/>
      <point x="636.5333333333333" y="862.6222222222223" type="line"/>
      <point x="334.62222222222226" y="673.7333333333333" type="line"/>
      <point x="636.5333333333333" y="490.84444444444443" type="line"/>
    </contour>
  </outline>
</glyph>
<glyph name="equal" format="2">
  <advance width="795"/>
  <unicode hex="003D"/>
  <outline>
    <contour>
      <point x="12.53333333333336" y="307.8" type="line"/>
      <point x="12.53333333333336" y="643.3555555555556" type="line"/>
      <point x="781.6444444444444" y="643.3555555555556" type="line"/>
      <point x="781.6444444444444" y="307.8" type="line"/>
    </contour>
    <contour>
      <point x="12.53333333333336" y="713.6" type="line"/>
      <point x="12.53333333333336" y="1049.1555555555556" type="line"/>
      <point x="781.6444444444444" y="1049.1555555555556" type="line"/>
      <point x="781.6444444444444" y="713.6" type="line"/>
    </contour>
  </outline>
</glyph>
<glyph name="greater" format="2">
  <advance width="667"/>
  <unicode hex="003E"/>
  <outline>
    <contour>
      <point x="30.577777777777783" y="129.17777777777778" type="line"/>
      <point x="30.577777777777783" y="491.73333333333335" type="line"/>
      <point x="332.488888888889" y="680.6222222222223" type="line"/>
      <point x="30.577777777777783" y="863.5111111111111" type="line"/>
      <point x="30.577777777777783" y="1225.1777777777777" type="line"/>
      <point x="641.7111111111111" y="838.1777777777778" type="line"/>
      <point x="641.7111111111111" y="522.1777777777778" type="line"/>
    </contour>
  </outline>
</glyph>
<glyph name="at" format="2">
  <advance width="1543"/>
  <unicode hex="0040"/>
  <outline>
    <contour>
      <point x="395.1111111111111" y="401.0" type="qcurve" smooth="yes"/>
      <point x="395.1111111111111" y="683.0"/>
      <point x="649.6888888888889" y="1002.0"/>
      <point x="811.9555555555555" y="1002.0" type="qcurve" smooth="yes"/>
      <point x="875.911111111111" y="1002.0"/>
      <point x="978.2888888888888" y="967.0"/>
      <point x="1012.3555555555556" y="917.0" type="qcurve"/>
      <point x="1222.4" y="917.0" type="line"/>
      <point x="1146.7333333333333" y="362.0" type="line" smooth="yes"/>
      <point x="1141.2" y="304.0"/>
      <point x="1142.0666666666666" y="258.0"/>
      <point x="1157.8444444444444" y="257.0" type="qcurve" smooth="yes"/>
      <point x="1198.7277074542897" y="256.0"/>
      <point x="1250.8666666666666" y="441.0"/>
      <point x="1250.8666666666666" y="611.0" type="qcurve" smooth="yes"/>
      <point x="1250.8666666666666" y="857.0"/>
      <point x="1023.4105524518932" y="1139.0"/>
      <point x="817.9555555555555" y="1139.0" type="qcurve" smooth="yes"/>
      <point x="615.6244444444444" y="1139.0"/>
      <point x="347.0" y="742.0"/>
      <point x="347.0" y="433.0" type="qcurve" smooth="yes"/>
      <point x="347.0" y="161.0"/>
      <point x="527.2761904761904" y="-88.0"/>
      <point x="706.7333333333333" y="-88.0" type="qcurve" smooth="yes"/>
      <point x="795.8444444444444" y="-88.0"/>
      <point x="920.1111111111111" y="-43.0"/>
      <point x="960.6222222222223" y="-9.0" type="qcurve"/>
      <point x="960.6222222222223" y="-278.0" type="line"/>
      <point x="917.0222222222221" y="-318.0"/>
      <point x="795.8444444444444" y="-356.0"/>
      <point x="706.7333333333333" y="-356.0" type="qcurve" smooth="yes"/>
      <point x="419.73333333333335" y="-356.0"/>
      <point x="20.0" y="53.0"/>
      <point x="20.0" y="464.0" type="qcurve" smooth="yes"/>
      <point x="20.0" y="856.0"/>
      <point x="493.0666666666667" y="1396.0"/>
      <point x="817.9555555555555" y="1396.0" type="qcurve" smooth="yes"/>
      <point x="1131.8444444444444" y="1396.0"/>
      <point x="1527.8666666666666" y="984.0"/>
      <point x="1527.8666666666666" y="641.0" type="qcurve" smooth="yes"/>
      <point x="1527.8666666666666" y="371.0"/>
      <point x="1312.7333333333333" y="49.0"/>
      <point x="1128.288888888889" y="49.0" type="qcurve" smooth="yes"/>
      <point x="1019.9594296475652" y="49.0"/>
      <point x="894.2389675479226" y="126.18654081221288"/>
      <point x="866.4666666666667" y="201.0" type="qcurve"/>
      <point x="829.1458322422277" y="126.67204160287457"/>
      <point x="720.7883943290472" y="49.0"/>
      <point x="659.9555555555555" y="49.0" type="qcurve" smooth="yes"/>
      <point x="541.8444444444444" y="49.0"/>
      <point x="395.1111111111111" y="217.0"/>
    </contour>
    <contour>
      <point x="729.1111111111111" y="424.0" type="qcurve" smooth="yes"/>
      <point x="729.1111111111111" y="340.0"/>
      <point x="753.1732470334412" y="301.0"/>
      <point x="778.0222222222222" y="301.0" type="qcurve" smooth="yes"/>
      <point x="800.0201098436839" y="301.0"/>
      <point x="838.2651405946235" y="348.85902877224305"/>
      <point x="844.911111111111" y="412.0" type="qcurve" smooth="yes"/>
      <point x="886.1333333333334" y="759.0" type="line"/>
      <point x="878.7530096835155" y="768.3522171256351"/>
      <point x="854.5777777777778" y="782.0"/>
      <point x="832.5777777777778" y="782.0" type="qcurve" smooth="yes"/>
      <point x="795.6170771756979" y="782.0"/>
      <point x="729.1111111111111" y="578.0"/>
    </contour>
  </outline>
</glyph>
<glyph name="B" format="2">
  <advance width="1042"/>
  <unicode hex="0042"/>
  <outline>
    <contour>
      <point x="10.0" y="0.0" type="line"/>
      <point x="10.0" y="1456.0" type="line"/>
      <point x="565.6666666666666" y="1456.0" type="line" smooth="yes"/>
      <point x="749.5555555555555" y="1456.0"/>
      <point x="975.1555555555556" y="1265.0"/>
      <point x="976.1555555555556" y="1086.0" type="qcurve" smooth="yes"/>
      <point x="977.1555555555556" y="941.0"/>
      <point x="868.488888888889" y="798.0"/>
      <point x="810.4444444444445" y="769.0" type="qcurve"/>
      <point x="810.4444444444445" y="768.0" type="line"/>
      <point x="883.9333333333334" y="747.0"/>
      <point x="1038.0444444444445" y="594.0"/>
      <point x="1038.0444444444445" y="428.0" type="qcurve" smooth="yes"/>
      <point x="1038.0444444444445" y="222.0"/>
      <point x="763.1777777777778" y="0.0"/>
      <point x="566.3777777777777" y="0.0" type="qcurve" smooth="yes"/>
    </contour>
    <contour>
      <point x="478.0" y="376.0" type="line"/>
      <point x="509.37777777777774" y="376.0" type="line" smooth="yes"/>
      <point x="523.8888888888889" y="376.0"/>
      <point x="540.0444444444445" y="395.0"/>
      <point x="540.0444444444445" y="482.0" type="qcurve" smooth="yes"/>
      <point x="540.0444444444445" y="568.0"/>
      <point x="521.8707182320442" y="585.0"/>
      <point x="506.37777777777774" y="585.0" type="qcurve" smooth="yes"/>
      <point x="478.0" y="585.0" type="line"/>
    </contour>
    <contour>
      <point x="478.0" y="857.0" type="line"/>
      <point x="502.66666666666674" y="857.0" type="line" smooth="yes"/>
      <point x="522.2666666666667" y="857.0"/>
      <point x="539.1555555555556" y="878.0"/>
      <point x="539.1555555555556" y="952.0" type="qcurve" smooth="yes"/>
      <point x="539.1555555555556" y="1039.0"/>
      <point x="522.2694365753856" y="1058.0"/>
      <point x="502.66666666666674" y="1058.0" type="qcurve" smooth="yes"/>
      <point x="478.0" y="1058.0" type="line"/>
    </contour>
  </outline>
</glyph>
<glyph name="F" format="2">
  <advance width="735"/>
  <unicode hex="0046"/>
  <outline>
    <contour>
      <point x="10.0" y="0.0" type="line"/>
      <point x="10.0" y="1456.0" type="line"/>
      <point x="733.0888888888888" y="1456.0" type="line"/>
      <point x="733.0888888888888" y="991.0" type="line"/>
      <point x="500.0" y="991.0" type="line"/>
      <point x="500.0" y="944.0" type="line"/>
      <point x="712.8666666666667" y="944.0" type="line"/>
      <point x="712.8666666666667" y="479.0" type="line"/>
      <point x="500.0" y="479.0" type="line"/>
      <point x="500.0" y="0.0" type="line"/>
    </contour>
  </outline>
</glyph>
<glyph name="H" format="2">
  <advance width="1055"/>
  <unicode hex="0048"/>
  <outline>
    <contour>
      <point x="10.0" y="0.0" type="line"/>
      <point x="10.0" y="1456.0" type="line"/>
      <point x="500.0" y="1456.0" type="line"/>
      <point x="500.0" y="1001.0" type="line"/>
      <point x="554.8888888888889" y="1001.0" type="line"/>
      <point x="554.8888888888889" y="1456.0" type="line"/>
      <point x="1044.888888888889" y="1456.0" type="line"/>
      <point x="1044.888888888889" y="0.0" type="line"/>
      <point x="554.8888888888889" y="0.0" type="line"/>
      <point x="554.8888888888889" y="504.0" type="line"/>
      <point x="500.0" y="504.0" type="line"/>
      <point x="500.0" y="0.0" type="line"/>
    </contour>
  </outline>
</glyph>
<glyph name="J" format="2">
  <advance width="1009"/>
  <unicode hex="004A"/>
  <outline>
    <contour>
      <point x="4.0" y="458.44444444444446" type="qcurve" smooth="yes"/>
      <point x="4.0" y="639.4444444444445" type="line"/>
      <point x="467.0" y="639.4444444444445" type="line"/>
      <point x="467.0" y="409.44444444444446" type="line" smooth="yes"/>
      <point x="460.0" y="390.31111111111113"/>
      <point x="477.4798009950249" y="368.0"/>
      <point x="489.2222222222222" y="368.0" type="qcurve" smooth="yes"/>
      <point x="499.96464344941955" y="368.0"/>
      <point x="508.44444444444446" y="382.3062237495227"/>
      <point x="508.44444444444446" y="403.44444444444446" type="qcurve" smooth="yes"/>
      <point x="508.44444444444446" y="1456.0" type="line"/>
      <point x="1001.4444444444443" y="1456.0" type="line"/>
      <point x="1001.4444444444443" y="511.44444444444446" type="line" smooth="yes"/>
      <point x="1001.4444444444443" y="223.3931623931624"/>
      <point x="729.7555555555556" y="-24.0"/>
      <point x="481.2222222222222" y="-24.0" type="qcurve" smooth="yes"/>
      <point x="232.68888888888887" y="-24.0"/>
      <point x="4.0" y="248.4"/>
    </contour>
  </outline>
</glyph>
<glyph name="K" format="2">
  <advance width="1121"/>
  <unicode hex="004B"/>
  <outline>
    <contour>
      <point x="10.0" y="0.0" type="line"/>
      <point x="10.0" y="1456.0" type="line"/>
      <point x="500.0" y="1456.0" type="line"/>
      <point x="500.0" y="1158.9555555555555" type="line"/>
      <point x="623.3333333333334" y="1456.0" type="line"/>
      <point x="1114.822222222222" y="1456.0" type="line"/>
      <point x="500.0" y="230.26666666666665" type="line"/>
      <point x="500.0" y="0.0" type="line"/>
    </contour>
    <contour>
      <point x="592.5777777777778" y="0.0" type="line"/>
      <point x="459.4222222222222" y="537.7111111111111" type="line"/>
      <point x="781.3111111111111" y="1213.4666666666667" type="line"/>
      <point x="1130.8" y="0.0" type="line"/>
    </contour>
  </outline>
</glyph>
<glyph name="L" format="2">
  <advance width="775"/>
  <unicode hex="004C"/>
  <outline>
    <contour>
      <point x="10.0" y="0.0" type="line"/>
      <point x="10.0" y="1456.0" type="line"/>
      <point x="500.0" y="1456.0" type="line"/>
      <point x="500.0" y="466.0" type="line"/>
      <point x="773.6444444444444" y="466.0" type="line"/>
      <point x="773.6444444444444" y="0.0" type="line"/>
    </contour>
  </outline>
</glyph>
<glyph name="P" format="2">
  <advance width="1043"/>
  <unicode hex="0050"/>
  <outline>
    <contour>
      <point x="10.0" y="0.0" type="line"/>
      <point x="10.0" y="1456.0" type="line"/>
      <point x="623.7555555555556" y="1456.0" type="line" smooth="yes"/>
      <point x="817.088888888889" y="1456.0"/>
      <point x="1038.7777777777778" y="1168.0"/>
      <point x="1038.7777777777778" y="879.0" type="qcurve" smooth="yes"/>
      <point x="1038.7777777777778" y="590.0"/>
      <point x="796.088888888889" y="309.0"/>
      <point x="585.7555555555556" y="309.0" type="qcurve" smooth="yes"/>
      <point x="500.0" y="309.0" type="line"/>
      <point x="500.0" y="0.0" type="line"/>
    </contour>
    <contour>
      <point x="500.0" y="690.0" type="line"/>
      <point x="525.7555555555555" y="690.0" type="line" smooth="yes"/>
      <point x="542.8567771960442" y="690.0"/>
      <point x="551.7777777777778" y="716.0"/>
      <point x="551.7777777777778" y="865.0" type="qcurve" smooth="yes"/>
      <point x="551.7777777777778" y="1007.0"/>
      <point x="540.8567771960442" y="1041.0"/>
      <point x="524.7555555555555" y="1041.0" type="qcurve" smooth="yes"/>
      <point x="500.0" y="1041.0" type="line"/>
    </contour>
  </outline>
</glyph>
<glyph name="Q" format="2">
  <advance width="1103"/>
  <unicode hex="0051"/>
  <outline>
    <contour>
      <point x="6.0" y="628.6666666666666" type="qcurve" smooth="yes"/>
      <point x="6.0" y="868.3333333333335" type="line" smooth="yes"/>
      <point x="6.0" y="1192.5777777777778"/>
      <point x="290.64444444444445" y="1486.0"/>
      <point x="547.6888888888889" y="1486.0" type="qcurve" smooth="yes"/>
      <point x="814.6444444444444" y="1486.0"/>
      <point x="1093.3777777777777" y="1193.5777777777778"/>
      <point x="1093.3777777777777" y="869.3333333333335" type="qcurve" smooth="yes"/>
      <point x="1093.3777777777777" y="628.6666666666666" type="line" smooth="yes"/>
      <point x="1093.3777777777777" y="302.4222222222222"/>
      <point x="811.6444444444444" y="-13.0"/>
      <point x="548.6888888888889" y="-13.0" type="qcurve" smooth="yes"/>
      <point x="293.64444444444445" y="-13.0"/>
      <point x="6.0" y="301.4222222222222"/>
    </contour>
    <contour>
      <point x="524.0" y="422.66666666666663" type="line" smooth="yes"/>
      <point x="524.0" y="399.4222222222222"/>
      <point x="535.4666666666667" y="385.0"/>
      <point x="549.6888888888889" y="385.0" type="qcurve" smooth="yes"/>
      <point x="563.8222222222222" y="385.0"/>
      <point x="576.3777777777777" y="400.4222222222222"/>
      <point x="576.3777777777777" y="422.66666666666663" type="qcurve" smooth="yes"/>
      <point x="576.3777777777777" y="1045.3333333333335" type="line" smooth="yes"/>
      <point x="576.3777777777777" y="1060.5777777777778"/>
      <point x="565.8222222222222" y="1077.0"/>
      <point x="550.6888888888889" y="1077.0" type="qcurve" smooth="yes"/>
      <point x="535.4666666666667" y="1077.0"/>
      <point x="524.0" y="1060.5777777777778"/>
      <point x="524.0" y="1045.3333333333335" type="qcurve" smooth="yes"/>
    </contour>
    <contour>
      <point x="796.8888888888889" y="-148.0" type="line"/>
      <point x="535.1555555555556" y="108.0" type="line"/>
      <point x="814.2222222222222" y="408.0" type="line"/>
      <point x="1080.1333333333334" y="152.0" type="line"/>
    </contour>
  </outline>
</glyph>
<glyph name="S" format="2">
  <advance width="1051"/>
  <unicode hex="0053"/>
  <outline>
    <contour>
      <point x="6.0" y="390.0" type="qcurve" smooth="yes"/>
      <point x="6.0" y="505.0" type="line"/>
      <point x="472.0" y="505.0" type="line"/>
      <point x="472.0" y="393.0" type="line" smooth="yes"/>
      <point x="472.0" y="373.0"/>
      <point x="494.2493301812451" y="358.0"/>
      <point x="512.8222222222222" y="358.0" type="qcurve" smooth="yes"/>
      <point x="530.448975188781" y="358.0"/>
      <point x="553.3777777777777" y="382.0"/>
      <point x="553.3777777777777" y="409.0" type="qcurve" smooth="yes"/>
      <point x="553.3777777777777" y="459.0"/>
      <point x="505.9333333333333" y="533.2888888888889"/>
      <point x="378.4" y="593.0" type="qcurve" smooth="yes"/>
      <point x="190.66666666666669" y="683.4444444444445"/>
      <point x="8.711111111111109" y="886.0"/>
      <point x="8.711111111111109" y="1061.0" type="qcurve" smooth="yes"/>
      <point x="8.711111111111109" y="1263.0"/>
      <point x="290.4888888888889" y="1476.0"/>
      <point x="537.5555555555555" y="1476.0" type="qcurve" smooth="yes"/>
      <point x="784.7111111111111" y="1476.0"/>
      <point x="1016.7555555555555" y="1257.0"/>
      <point x="1016.7555555555555" y="1079.0" type="qcurve" smooth="yes"/>
      <point x="1016.7555555555555" y="1000.0" type="line"/>
      <point x="582.7555555555556" y="1000.0" type="line"/>
      <point x="582.7555555555556" y="1059.0" type="line" smooth="yes"/>
      <point x="582.7555555555556" y="1068.0"/>
      <point x="568.1445589919816" y="1082.0"/>
      <point x="552.5555555555555" y="1082.0" type="qcurve" smooth="yes"/>
      <point x="536.0387555555556" y="1082.0"/>
      <point x="518.7111111111111" y="1067.0"/>
      <point x="518.7111111111111" y="1049.5555555555557" type="qcurve" smooth="yes"/>
      <point x="518.7111111111111" y="1022.0"/>
      <point x="557.8666666666667" y="988.5333333333333"/>
      <point x="657.4222222222222" y="945.0" type="qcurve" smooth="yes"/>
      <point x="855.9777777777778" y="854.4666666666667"/>
      <point x="1045.3777777777777" y="646.0"/>
      <point x="1045.3777777777777" y="433.0" type="qcurve" smooth="yes"/>
      <point x="1045.3777777777777" y="229.0"/>
      <point x="800.1555555555556" y="-18.0"/>
      <point x="537.8222222222222" y="-19.0" type="qcurve" smooth="yes"/>
      <point x="275.4888888888889" y="-20.0"/>
      <point x="6.0" y="204.0"/>
    </contour>
  </outline>
</glyph>
<glyph name="V" format="2">
  <advance width="1047"/>
  <unicode hex="0056"/>
  <outline>
    <contour>
      <point x="-10.0" y="1456.0" type="line"/>
      <point x="491.5333333333333" y="1456.0" type="line"/>
      <point x="519.2444444444445" y="549.1777777777779" type="line" smooth="yes"/>
      <point x="521.2222222222222" y="522.6666666666667"/>
      <point x="524.9777777777778" y="503.4000000000001"/>
      <point x="527.9555555555555" y="461.8888888888889" type="qcurve"/>
      <point x="530.1333333333333" y="461.8888888888889" type="line"/>
      <point x="532.1111111111111" y="503.4000000000001"/>
      <point x="534.9555555555555" y="522.6666666666667"/>
      <point x="536.9333333333334" y="549.1777777777779" type="qcurve" smooth="yes"/>
      <point x="572.6444444444445" y="1456.0" type="line"/>
      <point x="1057.0" y="1456.0" type="line"/>
      <point x="839.9111111111112" y="0.0" type="line"/>
      <point x="211.0888888888889" y="0.0" type="line"/>
    </contour>
  </outline>
</glyph>
<glyph name="W" format="2">
  <advance width="1685"/>
  <unicode hex="0057"/>
  <outline>
    <contour>
      <point x="231.66666666666663" y="0.0" type="line"/>
      <point x="-1.0" y="1456.0" type="line"/>
      <point x="520.8" y="1456.0" type="line"/>
      <point x="571.8666666666667" y="741.4444444444443" type="line" smooth="yes"/>
      <point x="573.1333333333333" y="723.4444444444443"/>
      <point x="577.2222222222222" y="680.4444444444445"/>
      <point x="577.2222222222222" y="664.4444444444445" type="qcurve"/>
      <point x="579.4" y="664.4444444444445" type="line"/>
      <point x="581.4888888888888" y="680.4444444444445"/>
      <point x="580.5777777777778" y="722.4444444444443"/>
      <point x="581.7555555555555" y="740.4444444444443" type="qcurve" smooth="yes"/>
      <point x="629.7777777777778" y="1456.0" type="line"/>
      <point x="1058.3555555555556" y="1456.0" type="line"/>
      <point x="1098.5555555555557" y="742.4444444444443" type="line" smooth="yes"/>
      <point x="1098.7333333333333" y="734.4444444444443"/>
      <point x="1104.911111111111" y="668.4444444444445"/>
      <point x="1104.911111111111" y="664.4444444444445" type="qcurve"/>
      <point x="1106.088888888889" y="664.4444444444445" type="line"/>
      <point x="1106.1777777777777" y="668.4444444444445"/>
      <point x="1107.2666666666667" y="733.4444444444443"/>
      <point x="1108.4444444444443" y="742.4444444444443" type="qcurve" smooth="yes"/>
      <point x="1167.3333333333333" y="1456.0" type="line"/>
      <point x="1686.0444444444445" y="1456.0" type="line"/>
      <point x="1465.4666666666667" y="0.0" type="line"/>
      <point x="923.1333333333332" y="0.0" type="line"/>
      <point x="848.5555555555555" y="671.3333333333334" type="line" smooth="yes"/>
      <point x="847.3777777777777" y="677.3333333333331"/>
      <point x="841.2" y="723.3333333333331"/>
      <point x="841.1111111111111" y="725.3333333333335" type="qcurve"/>
      <point x="839.9333333333333" y="725.3333333333335" type="line"/>
      <point x="839.9333333333333" y="723.3333333333331"/>
      <point x="834.6666666666666" y="678.3333333333331"/>
      <point x="833.4888888888889" y="671.3333333333334" type="qcurve" smooth="yes"/>
      <point x="778.0" y="0.0" type="line"/>
    </contour>
  </outline>
</glyph>
<glyph name="Z" format="2">
  <advance width="934"/>
  <unicode hex="005A"/>
  <outline>
    <contour>
      <point x="1.4222222222222207" y="0.0" type="line"/>
      <point x="1.4222222222222207" y="314.0" type="line"/>
      <point x="321.8666666666667" y="990.0" type="line"/>
      <point x="14.68888888888889" y="990.0" type="line"/>
      <point x="14.68888888888889" y="1456.0" type="line"/>
      <point x="928.2666666666667" y="1456.0" type="line"/>
      <point x="928.2666666666667" y="1122.0" type="line"/>
      <point x="607.8222222222222" y="446.0" type="line"/>
      <point x="932.9777777777776" y="446.0" type="line"/>
      <point x="932.9777777777776" y="0.0" type="line"/>
    </contour>
  </outline>
</glyph>
<glyph name="d" format="2">
  <advance width="1042"/>
  <unicode hex="0064"/>
  <outline>
    <contour>
      <point x="4.0" y="445.0" type="qcurve" smooth="yes"/>
      <point x="4.0" y="509.0" type="line" smooth="yes"/>
      <point x="4.0" y="729.0"/>
      <point x="187.64444444444445" y="940.0"/>
      <point x="326.0444444444444" y="940.0" type="qcurve" smooth="yes"/>
      <point x="419.73333333333335" y="940.0"/>
      <point x="520.3777777777777" y="890.4888888888888"/>
      <point x="539.9555555555555" y="868.3333333333334" type="qcurve"/>
      <point x="539.9555555555555" y="1456.0" type="line"/>
      <point x="1035.9555555555555" y="1456.0" type="line"/>
      <point x="1035.9555555555555" y="0.0" type="line"/>
      <point x="545.8666666666667" y="0.0" type="line"/>
      <point x="545.6" y="62.66666666666667" type="line"/>
      <point x="546.0444444444445" y="62.66666666666667" type="line"/>
      <point x="515.8222222222222" y="35.6"/>
      <point x="402.64444444444445" y="-15.0"/>
      <point x="328.0444444444444" y="-15.0" type="qcurve" smooth="yes"/>
      <point x="178.64444444444445" y="-15.0"/>
      <point x="4.0" y="211.0"/>
    </contour>
    <contour>
      <point x="489.0" y="363.0" type="line" smooth="yes"/>
      <point x="489.0" y="356.0"/>
      <point x="502.37777777777774" y="351.0"/>
      <point x="517.2888888888889" y="351.0" type="qcurve" smooth="yes"/>
      <point x="530.7111111111111" y="351.0"/>
      <point x="544.2666666666667" y="358.5111111111111"/>
      <point x="545.9555555555555" y="366.6666666666667" type="qcurve"/>
      <point x="545.9555555555555" y="546.3333333333334" type="line"/>
      <point x="544.3555555555556" y="555.4888888888889"/>
      <point x="530.7111111111111" y="566.0"/>
      <point x="517.2888888888889" y="566.0" type="qcurve" smooth="yes"/>
      <point x="503.37777777777774" y="566.0"/>
      <point x="489.0" y="559.0"/>
      <point x="489.0" y="549.0" type="qcurve" smooth="yes"/>
    </contour>
  </outline>
</glyph>
<glyph name="h" format="2">
  <advance width="1037"/>
  <unicode hex="0068"/>
  <outline>
    <contour>
      <point x="8.0" y="0.0" type="line"/>
      <point x="8.0" y="1456.0" type="line"/>
      <point x="492.0" y="1456.0" type="line"/>
      <point x="492.0" y="848.2222222222222" type="line"/>
      <point x="510.8222222222222" y="872.2222222222222"/>
      <point x="638.1333333333333" y="938.0"/>
      <point x="748.0222222222222" y="938.0" type="qcurve" smooth="yes"/>
      <point x="871.2444444444444" y="938.0"/>
      <point x="1031.2888888888888" y="814.9111111111112"/>
      <point x="1031.2888888888888" y="681.1111111111111" type="qcurve" smooth="yes"/>
      <point x="1031.2888888888888" y="0.0" type="line"/>
      <point x="543.2888888888889" y="0.0" type="line"/>
      <point x="543.2888888888889" y="557.1111111111111" type="line" smooth="yes"/>
      <point x="543.2888888888889" y="566.9111111111112"/>
      <point x="532.5333333333333" y="576.0"/>
      <point x="520.4" y="576.0" type="qcurve" smooth="yes"/>
      <point x="508.5111111111112" y="576.0"/>
      <point x="498.7555555555555" y="562.8888888888889"/>
      <point x="496.0" y="551.6666666666666" type="qcurve"/>
      <point x="496.0" y="0.0" type="line"/>
    </contour>
  </outline>
</glyph>
<glyph name="k" format="2">
  <advance width="1110"/>
  <unicode hex="006B"/>
  <outline>
    <contour>
      <point x="8.0" y="0.0" type="line"/>
      <point x="8.0" y="1456.0" type="line"/>
      <point x="495.0" y="1456.0" type="line"/>
      <point x="495.0" y="779.1777777777778" type="line"/>
      <point x="591.3333333333333" y="914.0" type="line"/>
      <point x="1087.111111111111" y="914.0" type="line"/>
      <point x="495.0" y="112.28888888888889" type="line"/>
      <point x="495.0" y="0.0" type="line"/>
    </contour>
    <contour>
      <point x="583.8444444444444" y="0.0" type="line"/>
      <point x="465.6444444444444" y="373.55555555555554" type="line"/>
      <point x="748.2" y="787.4888888888889" type="line"/>
      <point x="1119.7111111111112" y="0.0" type="line"/>
    </contour>
  </outline>
</glyph>
<glyph name="p" format="2">
  <advance width="1034"/>
  <unicode hex="0070"/>
  <outline>
    <contour>
      <point x="8.0" y="-388.0" type="line"/>
      <point x="8.0" y="914.0" type="line"/>
      <point x="485.0888888888889" y="914.0" type="line"/>
      <point x="485.35555555555555" y="858.3333333333334" type="line"/>
      <point x="488.91111111111115" y="859.3333333333334" type="line"/>
      <point x="509.1333333333333" y="883.4"/>
      <point x="610.3111111111111" y="940.0"/>
      <point x="711.9111111111112" y="940.0" type="qcurve" smooth="yes"/>
      <point x="852.3111111111111" y="940.0"/>
      <point x="1029.9555555555555" y="724.0"/>
      <point x="1029.9555555555555" y="509.0" type="qcurve" smooth="yes"/>
      <point x="1029.9555555555555" y="445.0" type="line" smooth="yes"/>
      <point x="1029.9555555555555" y="211.0"/>
      <point x="844.3111111111111" y="-15.0"/>
      <point x="706.9111111111112" y="-15.0" type="qcurve" smooth="yes"/>
      <point x="626.2222222222222" y="-15.0"/>
      <point x="538.5777777777778" y="-5.488888888888887"/>
      <point x="492.0" y="14.666666666666671" type="qcurve"/>
      <point x="492.0" y="-388.0" type="line"/>
    </contour>
    <contour>
      <point x="492.0" y="366.6666666666667" type="line"/>
      <point x="493.6" y="358.5111111111111"/>
      <point x="507.2444444444445" y="351.0"/>
      <point x="520.6666666666666" y="351.0" type="qcurve" smooth="yes"/>
      <point x="535.5777777777778" y="351.0"/>
      <point x="548.9555555555555" y="356.0"/>
      <point x="548.9555555555555" y="363.0" type="qcurve" smooth="yes"/>
      <point x="548.9555555555555" y="549.0" type="line" smooth="yes"/>
      <point x="548.9555555555555" y="559.0"/>
      <point x="534.5777777777778" y="566.0"/>
      <point x="520.6666666666666" y="566.0" type="qcurve" smooth="yes"/>
      <point x="507.2444444444445" y="566.0"/>
      <point x="493.68888888888887" y="557.4888888888889"/>
      <point x="492.0" y="546.3333333333334" type="qcurve"/>
    </contour>
  </outline>
</glyph>
<glyph name="q" format="2">
  <advance width="1044"/>
  <unicode hex="0071"/>
  <outline>
    <contour>
      <point x="4.0" y="445.0" type="qcurve" smooth="yes"/>
      <point x="4.0" y="509.0" type="line" smooth="yes"/>
      <point x="4.0" y="729.0"/>
      <point x="187.64444444444445" y="940.0"/>
      <point x="327.0444444444444" y="940.0" type="qcurve" smooth="yes"/>
      <point x="417.64444444444445" y="940.0"/>
      <point x="519.8222222222222" y="882.4"/>
      <point x="538.0444444444445" y="858.3333333333334" type="qcurve"/>
      <point x="540.6" y="858.3333333333334" type="line"/>
      <point x="540.8666666666667" y="914.0" type="line"/>
      <point x="1035.9555555555555" y="914.0" type="line"/>
      <point x="1035.9555555555555" y="-388.0" type="line"/>
      <point x="547.9555555555555" y="-388.0" type="line"/>
      <point x="547.9555555555555" y="62.66666666666667" type="line"/>
      <point x="547.9555555555555" y="62.66666666666667" type="line"/>
      <point x="516.3777777777777" y="35.51111111111111"/>
      <point x="403.73333333333335" y="-5.0"/>
      <point x="329.0444444444444" y="-5.0" type="qcurve" smooth="yes"/>
      <point x="179.64444444444445" y="-5.0"/>
      <point x="4.0" y="211.0"/>
    </contour>
    <contour>
      <point x="489.0" y="373.0" type="line" smooth="yes"/>
      <point x="489.0" y="366.0"/>
      <point x="502.37777777777774" y="361.0"/>
      <point x="517.2888888888889" y="361.0" type="qcurve" smooth="yes"/>
      <point x="530.7111111111111" y="361.0"/>
      <point x="544.3555555555556" y="368.5111111111111"/>
      <point x="545.9555555555555" y="376.6666666666667" type="qcurve"/>
      <point x="545.9555555555555" y="546.3333333333334" type="line"/>
      <point x="544.2666666666667" y="555.4888888888889"/>
      <point x="530.7111111111111" y="566.0"/>
      <point x="517.2888888888889" y="566.0" type="qcurve" smooth="yes"/>
      <point x="503.37777777777774" y="566.0"/>
      <point x="489.0" y="559.0"/>
      <point x="489.0" y="549.0" type="qcurve" smooth="yes"/>
    </contour>
  </outline>
</glyph>
<glyph name="r" format="2">
  <advance width="674"/>
  <unicode hex="0072"/>
  <outline>
    <contour>
      <point x="8.0" y="0.0" type="line"/>
      <point x="8.0" y="914.0" type="line"/>
      <point x="484.08888888888885" y="914.0" type="line"/>
      <point x="484.3555555555555" y="830.4444444444445" type="line"/>
      <point x="484.91111111111104" y="830.4444444444445" type="line"/>
      <point x="499.26080546573974" y="868.8066181850724"/>
      <point x="569.2305949008498" y="934.0"/>
      <point x="615.1333333333333" y="934.0" type="qcurve" smooth="yes"/>
      <point x="638.8444444444444" y="934.0"/>
      <point x="668.3555555555556" y="929.0"/>
      <point x="673.7111111111111" y="925.0" type="qcurve"/>
      <point x="673.7111111111111" y="514.0" type="line"/>
      <point x="663.0888888888888" y="522.0"/>
      <point x="631.6666666666666" y="531.0"/>
      <point x="612.8666666666667" y="531.0" type="qcurve" smooth="yes"/>
      <point x="582.7466666666667" y="531.0"/>
      <point x="512.8525371082285" y="492.9994566255301"/>
      <point x="494.0" y="453.44444444444446" type="qcurve"/>
      <point x="496.0" y="0.0" type="line"/>
    </contour>
  </outline>
</glyph>
<glyph name="t" format="2">
  <advance width="604"/>
  <unicode hex="0074"/>
  <outline>
    <contour>
      <point x="4.0" y="526.0" type="line"/>
      <point x="4.0" y="914.0" type="line"/>
      <point x="584.2" y="914.0" type="line"/>
      <point x="584.2" y="526.0" type="line"/>
    </contour>
    <contour>
      <point x="36.17777777777778" y="291.0" type="qcurve" smooth="yes"/>
      <point x="36.17777777777778" y="872.0" type="line"/>
      <point x="56.17777777777778" y="883.0" type="line"/>
      <point x="56.17777777777778" y="1072.0" type="line"/>
      <point x="504.1777777777778" y="1072.0" type="line"/>
      <point x="504.1777777777778" y="432.0" type="line" smooth="yes"/>
      <point x="504.1777777777778" y="397.0"/>
      <point x="527.4" y="365.0"/>
      <point x="545.7111111111111" y="365.0" type="qcurve" smooth="yes"/>
      <point x="564.6" y="365.0"/>
      <point x="583.3777777777777" y="369.0"/>
      <point x="597.2666666666667" y="372.0" type="qcurve"/>
      <point x="597.2666666666667" y="24.0" type="line"/>
      <point x="561.5943668492911" y="11.043782919756943"/>
      <point x="435.3227319062181" y="-13.0"/>
      <point x="370.0" y="-13.0" type="qcurve" smooth="yes"/>
      <point x="206.26120857699806" y="-13.0"/>
      <point x="36.17777777777778" y="141.0"/>
    </contour>
  </outline>
</glyph>
<glyph name="v" format="2">
  <advance width="968"/>
  <unicode hex="0076"/>
  <outline>
    <contour>
      <point x="-10.0" y="914.0" type="line"/>
      <point x="444.7777777777778" y="914.0" type="line"/>
      <point x="502.73333333333335" y="626.2222222222222" type="line" smooth="yes"/>
      <point x="506.26666666666665" y="606.2222222222222"/>
      <point x="512.0444444444445" y="578.2222222222222"/>
      <point x="514.2" y="561.2222222222222" type="qcurve"/>
      <point x="515.0222222222222" y="561.2222222222222" type="line"/>
      <point x="516.1777777777778" y="577.2222222222222"/>
      <point x="521.0444444444445" y="606.2222222222222"/>
      <point x="524.4888888888888" y="623.2222222222222" type="qcurve" smooth="yes"/>
      <point x="577.2666666666667" y="914.0" type="line"/>
      <point x="978.0444444444445" y="914.0" type="line"/>
      <point x="763.4666666666667" y="0.0" type="line"/>
      <point x="210.57777777777778" y="0.0" type="line"/>
    </contour>
  </outline>
</glyph>
<glyph name="z" format="2">
  <advance width="894"/>
  <unicode hex="007A"/>
  <outline>
    <contour>
      <point x="6.0" y="0.0" type="line"/>
      <point x="6.0" y="285.0" type="line"/>
      <point x="243.57777777777778" y="520.0" type="line"/>
      <point x="25.266666666666666" y="520.0" type="line"/>
      <point x="25.266666666666666" y="914.0" type="line"/>
      <point x="865.4888888888889" y="914.0" type="line"/>
      <point x="865.4888888888889" y="609.0" type="line"/>
      <point x="628.7333333333333" y="374.0" type="line"/>
      <point x="884.4666666666667" y="374.0" type="line"/>
      <point x="884.4666666666667" y="0.0" type="line"/>
    </contour>
  </outline>
</glyph>
<glyph name="braceleft" format="2">
  <advance width="687"/>
  <unicode hex="007B"/>
  <outline>
    <contour>
      <point x="666.7111111111111" y="-312.0" type="line"/>
      <point x="298.06666666666666" y="-324.0"/>
      <point x="99.15555555555555" y="-86.73333333333332"/>
      <point x="147.46666666666667" y="112.55555555555556" type="qcurve" smooth="yes"/>
      <point x="192.0" y="302.0" type="line" smooth="yes"/>
      <point x="209.53333333333333" y="383.0"/>
      <point x="125.77777777777777" y="430.0"/>
      <point x="29.28888888888889" y="430.0" type="qcurve"/>
      <point x="29.28888888888889" y="718.0" type="line"/>
      <point x="125.77777777777777" y="718.0"/>
      <point x="209.53333333333333" y="765.0"/>
      <point x="192.0" y="846.0" type="qcurve" smooth="yes"/>
      <point x="147.46666666666667" y="1035.4444444444443" type="line" smooth="yes"/>
      <point x="100.15555555555555" y="1228.7333333333333"/>
      <point x="298.06666666666666" y="1466.0"/>
      <point x="666.7111111111111" y="1460.0" type="qcurve"/>
      <point x="666.7111111111111" y="1193.0" type="line"/>
      <point x="555.2666666666667" y="1193.0"/>
      <point x="468.6" y="1092.3777777777777"/>
      <point x="491.4666666666667" y="991.4444444444443" type="qcurve" smooth="yes"/>
      <point x="536.0" y="814.0" type="line" smooth="yes"/>
      <point x="556.6222222222223" y="730.1777777777778"/>
      <point x="496.5333333333333" y="603.1111111111111"/>
      <point x="403.79999999999995" y="574.0" type="qcurve"/>
      <point x="496.5333333333333" y="544.8888888888889"/>
      <point x="557.4444444444445" y="417.9111111111111"/>
      <point x="536.0" y="334.0" type="qcurve" smooth="yes"/>
      <point x="491.4666666666667" y="156.55555555555554" type="line" smooth="yes"/>
      <point x="468.6" y="55.62222222222222"/>
      <point x="555.2666666666667" y="-45.0"/>
      <point x="666.7111111111111" y="-45.0" type="qcurve"/>
    </contour>
  </outline>
</glyph>
<glyph name="braceright" format="2">
  <advance width="687"/>
  <unicode hex="007D"/>
  <outline>
    <contour>
      <point x="20.28888888888889" y="-313.0" type="qcurve"/>
      <point x="20.28888888888889" y="-46.0" type="line"/>
      <point x="131.7333333333333" y="-46.0"/>
      <point x="218.39999999999998" y="54.62222222222222"/>
      <point x="195.53333333333333" y="154.55555555555554" type="qcurve" smooth="yes"/>
      <point x="151.0" y="333.0" type="line" smooth="yes"/>
      <point x="129.55555555555554" y="416.9111111111111"/>
      <point x="190.46666666666664" y="543.8888888888889"/>
      <point x="283.2" y="573.0" type="qcurve"/>
      <point x="190.46666666666664" y="602.1111111111111"/>
      <point x="129.55555555555554" y="729.0888888888888"/>
      <point x="151.0" y="813.0" type="qcurve" smooth="yes"/>
      <point x="195.53333333333333" y="990.4444444444443" type="line" smooth="yes"/>
      <point x="218.39999999999998" y="1091.3777777777777"/>
      <point x="131.7333333333333" y="1192.0"/>
      <point x="20.28888888888889" y="1192.0" type="qcurve"/>
      <point x="20.28888888888889" y="1459.0" type="line"/>
      <point x="388.9333333333334" y="1471.0"/>
      <point x="588.8444444444444" y="1232.7333333333333"/>
      <point x="539.5333333333333" y="1034.4444444444443" type="qcurve" smooth="yes"/>
      <point x="495.0" y="845.0" type="line" smooth="yes"/>
      <point x="477.4666666666667" y="764.0"/>
      <point x="561.2222222222222" y="717.0"/>
      <point x="657.7111111111111" y="717.0" type="qcurve"/>
      <point x="657.7111111111111" y="428.0" type="line"/>
      <point x="561.2222222222222" y="428.0"/>
      <point x="477.4666666666667" y="381.0"/>
      <point x="495.0" y="301.0" type="qcurve" smooth="yes"/>
      <point x="539.5333333333333" y="110.55555555555556" type="line" smooth="yes"/>
      <point x="586.8444444444444" y="-81.73333333333332"/>
      <point x="388.9333333333334" y="-319.0"/>
    </contour>
  </outline>
</glyph>
<glyph name="fraction" format="2">
  <advance width="342"/>
  <unicode hex="2044"/>
  <guideline x="0" y="901.0" angle="0" identifier="tcCoNUQTdD"/>
  <guideline x="0" y="555.0" angle="0" identifier="0lx51aIE0d"/>
  <outline>
    <contour>
      <point x="602.6222222222223" y="1344.7333333333333" type="line"/>
      <point x="31.111111111111114" y="-18.0" type="line"/>
      <point x="-234.8888888888889" y="115.0" type="line"/>
      <point x="329.6222222222222" y="1473.7333333333333" type="line"/>
    </contour>
  </outline>
</glyph>
<glyph name="four.prop" format="2">
  <advance width="1011"/>
  <outline>
    <contour>
      <point x="623.0" y="0.0" type="line"/>
      <point x="623.0" y="398.0" type="line"/>
      <point x="623.0" y="450.0" type="line"/>
      <point x="623.0" y="1149.0" type="line"/>
      <point x="611.0" y="1149.0" type="line"/>
      <point x="206.0" y="500.0" type="line"/>
      <point x="674.0" y="500.0" type="line"/>
      <point x="751.0" y="500.0" type="line"/>
      <point x="1007.0" y="500.0" type="line"/>
      <point x="1007.0" y="342.0" type="line"/>
      <point x="-13.0" y="342.0" type="line"/>
      <point x="-13.0" y="468.0" type="line"/>
      <point x="631.0" y="1456.0" type="line"/>
      <point x="803.0" y="1456.0" type="line"/>
      <point x="803.0" y="0.0" type="line"/>
    </contour>
  </outline>
</glyph>
<glyph name="horncomb.case" format="2">
  <advance width="1024"/>
  <outline>
    <contour>
      <point x="382.0" y="1525.111111111111" type="line"/>
      <point x="455.0" y="1525.111111111111" type="line" smooth="yes"/>
      <point x="518.0" y="1525.111111111111"/>
      <point x="593.0" y="1556.111111111111"/>
      <point x="593.0" y="1613.111111111111" type="qcurve" smooth="yes"/>
      <point x="593.0" y="1654.111111111111"/>
      <point x="582.0" y="1727.111111111111"/>
      <point x="573.0" y="1763.111111111111" type="qcurve"/>
      <point x="714.7777777777778" y="1763.111111111111" type="line"/>
      <point x="731.7777777777778" y="1732.111111111111"/>
      <point x="765.7777777777778" y="1622.111111111111"/>
      <point x="765.7777777777778" y="1563.111111111111" type="qcurve" smooth="yes"/>
      <point x="765.7777777777778" y="1475.111111111111"/>
      <point x="626.0" y="1388.8666666666666"/>
      <point x="530.0" y="1388.8666666666666" type="qcurve" smooth="yes"/>
      <point x="484.0" y="1388.8666666666666"/>
      <point x="408.0" y="1401.0444444444445"/>
      <point x="382.0" y="1410.2222222222222" type="qcurve"/>
    </contour>
  </outline>
</glyph>
